<svg xmlns="http://www.w3.org/2000/svg" width="101" height="100" viewBox="0 0 101 100">
  <g id="Groupe_2294" data-name="Groupe 2294" transform="translate(-1514 -6533)">
    <g id="Groupe_2174" data-name="Groupe 2174" transform="translate(-3 3075)">
      <ellipse id="Ellipse_26" data-name="Ellipse 26" cx="50.5" cy="50" rx="50.5" ry="50" transform="translate(1517 3458)" fill="#fff"/>
    </g>
    <path id="Icon_awesome-people-carry" data-name="Icon awesome-people-carry" d="M12.75,9.563A4.781,4.781,0,1,0,7.969,4.781,4.782,4.782,0,0,0,12.75,9.563Zm38.25,0a4.781,4.781,0,1,0-4.781-4.781A4.782,4.782,0,0,0,51,9.563ZM63.521,46.627,59.139,35.67l-4.094,4.622-.2,1.813L57.6,49a3.185,3.185,0,0,0,2.958,2,3.1,3.1,0,0,0,1.185-.229A3.186,3.186,0,0,0,63.521,46.627Zm-3.407-20.9L58.272,17.74a6.455,6.455,0,0,0-3.735-4.472,6.146,6.146,0,0,0-5.588.329,10.913,10.913,0,0,0-4.791,5.917L43.032,22.89l-1.594,1.016V14.344a1.6,1.6,0,0,0-1.594-1.594H23.907a1.6,1.6,0,0,0-1.594,1.594v9.563l-1.6-1.016-1.126-3.377A10.835,10.835,0,0,0,14.792,13.6,6.148,6.148,0,0,0,9.2,13.268,6.455,6.455,0,0,0,5.469,17.74L3.636,25.729a6.382,6.382,0,0,0,1.434,5.648l6.694,7.56,1.006,9.224A3.19,3.19,0,0,0,15.938,51c.12,0,.229-.01.349-.02a3.182,3.182,0,0,0,2.819-3.516L18.1,38.22a6.366,6.366,0,0,0-1.554-3.486l-4.313-4.881,1.753-7,.677,2.032A6.442,6.442,0,0,0,17.1,28.13l5.09,3.237a4.241,4.241,0,0,0,1.713.5H39.844a4.241,4.241,0,0,0,1.713-.5l5.09-3.237a6.4,6.4,0,0,0,2.44-3.247l.677-2.032,1.753,7-4.313,4.881a6.366,6.366,0,0,0-1.554,3.486l-1.006,9.244a3.189,3.189,0,0,0,2.819,3.516c.12.01.229.02.349.02a3.189,3.189,0,0,0,3.168-2.839l1.006-9.224,6.694-7.56a6.411,6.411,0,0,0,1.434-5.648ZM4.612,35.67.23,46.627A3.187,3.187,0,0,0,6.146,49L8.906,42.1l-.2-1.813L4.612,35.67Z" transform="translate(1533.248 6557.5)" fill="#09cf65"/>
  </g>
</svg>
