<svg xmlns="http://www.w3.org/2000/svg" width="101" height="100" viewBox="0 0 101 100">
  <g id="Groupe_2293" data-name="Groupe 2293" transform="translate(-1072 -6555)">
    <ellipse id="Ellipse_25" data-name="Ellipse 25" cx="50.5" cy="50" rx="50.5" ry="50" transform="translate(1072 6555)" fill="#fff"/>
    <path id="Icon_material-work" data-name="Icon material-work" d="M51.425,13.761H40.664V8.381A5.362,5.362,0,0,0,35.284,3H24.522a5.362,5.362,0,0,0-5.381,5.381v5.381H8.381a5.339,5.339,0,0,0-5.354,5.381L3,48.735a5.362,5.362,0,0,0,5.381,5.381H51.425a5.362,5.362,0,0,0,5.381-5.381V19.142A5.362,5.362,0,0,0,51.425,13.761Zm-16.142,0H24.522V8.381H35.284Z" transform="translate(1092.598 6576.5)" fill="#09cf65"/>
  </g>
</svg>
