<svg xmlns="http://www.w3.org/2000/svg" width="101" height="100" viewBox="0 0 101 100">
  <g id="Groupe_2290" data-name="Groupe 2290" transform="translate(-1075 -3480)">
    <ellipse id="Ellipse_25" data-name="Ellipse 25" cx="50.5" cy="50" rx="50.5" ry="50" transform="translate(1075 3480)" fill="#fff"/>
    <path id="Icon_material-people-outline" data-name="Icon material-people-outline" d="M46.893,30.929a35.1,35.1,0,0,0-13.179,2.929,34.546,34.546,0,0,0-13.179-2.929c-6.355,0-19.036,3.163-19.036,9.518V48.5H65.929V40.446C65.929,34.091,53.248,30.929,46.893,30.929ZM35.179,44.107H5.893V40.446c0-1.581,7.5-5.125,14.643-5.125s14.643,3.544,14.643,5.125Zm26.357,0H39.571V40.446a5.328,5.328,0,0,0-1.523-3.573,28.253,28.253,0,0,1,8.844-1.552c7.146,0,14.643,3.544,14.643,5.125ZM20.536,28a10.25,10.25,0,1,0-10.25-10.25A10.261,10.261,0,0,0,20.536,28Zm0-16.107a5.857,5.857,0,1,1-5.857,5.857A5.874,5.874,0,0,1,20.536,11.893ZM46.893,28a10.25,10.25,0,1,0-10.25-10.25A10.261,10.261,0,0,0,46.893,28Zm0-16.107a5.857,5.857,0,1,1-5.857,5.857A5.874,5.874,0,0,1,46.893,11.893Z" transform="translate(1091.785 3502.5)" fill="#09cf65"/>
  </g>
</svg>
