<svg xmlns="http://www.w3.org/2000/svg" xmlns:xlink="http://www.w3.org/1999/xlink" width="535" height="527" viewBox="0 0 535 527">
  <defs>
    <clipPath id="clip-path">
      <rect id="Rectangle_206" data-name="Rectangle 206" width="124.555" height="156.069" fill="#09cf65" stroke="#09cf65" stroke-width="2"/>
    </clipPath>
    <clipPath id="clip-path-2">
      <rect id="Rectangle_219" data-name="Rectangle 219" width="151.72" height="154.711" fill="#09cf65"/>
    </clipPath>
  </defs>
  <g id="Groupe_716" data-name="Groupe 716" transform="translate(-1137.988 -1026.576)">
    <g id="Groupe_650" data-name="Groupe 650" transform="translate(1137.988 1026.494)">
      <g id="Tracé_825" data-name="Tracé 825" transform="translate(49.837 47.545)" fill="none">
        <path d="M221.72,0c122.452,0,221.72,99.267,221.72,221.72s-99.267,221.72-221.72,221.72S0,344.172,0,221.72,99.267,0,221.72,0Z" stroke="none"/>
        <path d="M 221.7195739746094 5 C 207.0121612548828 5 192.3154602050781 6.48138427734375 178.0376892089844 9.403045654296875 C 164.1253967285156 12.24993896484375 150.4407958984375 16.49786376953125 137.3640441894531 22.02880859375 C 124.5236206054688 27.45986938476562 112.1386413574219 34.18228149414062 100.5531005859375 42.00933837890625 C 89.07632446289062 49.76287841796875 78.283935546875 58.66744995117188 68.47567749023438 68.47567749023438 C 58.66744995117188 78.283935546875 49.76287841796875 89.07632446289062 42.00933837890625 100.5531005859375 C 34.18228149414062 112.1386413574219 27.45986938476562 124.5236206054688 22.02880859375 137.3640441894531 C 16.49786376953125 150.4407958984375 12.24993896484375 164.1253967285156 9.403045654296875 178.0376892089844 C 6.48138427734375 192.3154602050781 5 207.0121612548828 5 221.7195739746094 C 5 236.4269866943359 6.48138427734375 251.1236877441406 9.403045654296875 265.4014587402344 C 12.24993896484375 279.3137512207031 16.49786376953125 292.9983520507812 22.02880859375 306.0751037597656 C 27.45986938476562 318.91552734375 34.18228149414062 331.3005065917969 42.00933837890625 342.8860473632812 C 49.76287841796875 354.36279296875 58.66744995117188 365.1552124023438 68.47567749023438 374.9634399414062 C 78.283935546875 384.7716979980469 89.07632446289062 393.67626953125 100.5531005859375 401.4298095703125 C 112.1386413574219 409.2568664550781 124.5236206054688 415.9792785644531 137.3640441894531 421.4103393554688 C 150.4407958984375 426.9412841796875 164.1253967285156 431.189208984375 178.0376892089844 434.0361022949219 C 192.3154602050781 436.957763671875 207.0121612548828 438.4391479492188 221.7195739746094 438.4391479492188 C 236.4269866943359 438.4391479492188 251.1236877441406 436.957763671875 265.4014587402344 434.0361022949219 C 279.3137512207031 431.189208984375 292.9983520507812 426.9412841796875 306.0751037597656 421.4103393554688 C 318.91552734375 415.9792785644531 331.3005065917969 409.2568664550781 342.8860473632812 401.4298095703125 C 354.36279296875 393.67626953125 365.1552124023438 384.7716979980469 374.9634399414062 374.9634399414062 C 384.7716979980469 365.1552124023438 393.67626953125 354.36279296875 401.4298095703125 342.8860473632812 C 409.2568664550781 331.3005065917969 415.9792785644531 318.91552734375 421.4103393554688 306.0751037597656 C 426.9412841796875 292.9983520507812 431.189208984375 279.3137512207031 434.0361022949219 265.4014587402344 C 436.957763671875 251.1236877441406 438.4391479492188 236.4269866943359 438.4391479492188 221.7195739746094 C 438.4391479492188 207.0121612548828 436.957763671875 192.3154602050781 434.0361022949219 178.0376892089844 C 431.189208984375 164.1253967285156 426.9412841796875 150.4407958984375 421.4103393554688 137.3640441894531 C 415.9792785644531 124.5236206054688 409.2568664550781 112.1386413574219 401.4298095703125 100.5531005859375 C 393.67626953125 89.07632446289062 384.7716979980469 78.283935546875 374.9634399414062 68.47567749023438 C 365.1552124023438 58.66744995117188 354.36279296875 49.76287841796875 342.8860473632812 42.00933837890625 C 331.3005065917969 34.18228149414062 318.91552734375 27.45986938476562 306.0751037597656 22.02880859375 C 292.9983520507812 16.49786376953125 279.3137512207031 12.24993896484375 265.4014587402344 9.403045654296875 C 251.1236877441406 6.48138427734375 236.4269866943359 5 221.7195739746094 5 M 221.7195739746094 0 C 344.1719360351562 0 443.4391479492188 99.2672119140625 443.4391479492188 221.7195739746094 C 443.4391479492188 344.1719360351562 344.1719360351562 443.4391479492188 221.7195739746094 443.4391479492188 C 99.2672119140625 443.4391479492188 0 344.1719360351562 0 221.7195739746094 C 0 99.2672119140625 99.2672119140625 0 221.7195739746094 0 Z" stroke="none" fill="#09cf65"/>
      </g>
      <circle id="Ellipse_19" data-name="Ellipse 19" cx="108" cy="108" r="108" transform="translate(319 311.082)" fill="#fff"/>
      <ellipse id="Ellipse_14" data-name="Ellipse 14" cx="99" cy="98.5" rx="99" ry="98.5" transform="translate(8 1.082)" fill="#fff"/>
      <g id="Groupe_591" data-name="Groupe 591" transform="translate(21.272 20.432)">
        <path id="Tracé_120" data-name="Tracé 120" d="M67.773.156l.7-.156a2.485,2.485,0,0,1,2.412,1.945,32.711,32.711,0,0,1,1.478,9.882A36.182,36.182,0,0,1,0,11.827,35.266,35.266,0,0,1,1.4,1.945,2.64,2.64,0,0,1,3.891,0l.7.156A2.511,2.511,0,0,1,6.3,3.346a31.062,31.062,0,1,0,60.926,8.481,28.335,28.335,0,0,0-1.245-8.481,2.616,2.616,0,0,1,1.79-3.19" transform="translate(120.606 70.73) rotate(180)" fill="#09cf65"/>
        <path id="Tracé_121" data-name="Tracé 121" d="M2.568,0H14.395a2.659,2.659,0,0,1,2.646,2.568,2.607,2.607,0,0,1-2.646,2.568H2.568A2.541,2.541,0,0,1,0,2.568,2.591,2.591,0,0,1,2.568,0" transform="translate(143.327 61.471) rotate(180)" fill="#09cf65"/>
        <path id="Tracé_122" data-name="Tracé 122" d="M0,2.568A2.541,2.541,0,0,1,2.568,0H14.473a2.477,2.477,0,0,1,2.49,2.568,2.477,2.477,0,0,1-2.49,2.568H2.568A2.541,2.541,0,0,1,0,2.568" transform="translate(42.562 61.471) rotate(180)" fill="#09cf65"/>
        <path id="Tracé_123" data-name="Tracé 123" d="M2.568,0A2.524,2.524,0,0,1,5.136,2.49V14.4a2.591,2.591,0,0,1-2.568,2.568A2.541,2.541,0,0,1,0,14.4V2.49A2.477,2.477,0,0,1,2.568,0" transform="translate(86.993 16.963) rotate(180)" fill="#09cf65"/>
        <path id="Tracé_124" data-name="Tracé 124" d="M2.64,0A2.1,2.1,0,0,1,3.885.389L14.156,6.3a2.692,2.692,0,0,1,.934,3.5,2.655,2.655,0,0,1-3.5.934L1.239,4.824a2.54,2.54,0,0,1-.856-3.5A2.523,2.523,0,0,1,2.64,0" transform="translate(48.548 39.217) rotate(180)" fill="#09cf65"/>
        <path id="Tracé_125" data-name="Tracé 125" d="M6.259,1.323A2.493,2.493,0,0,1,8.438,0,2.037,2.037,0,0,1,9.761.389a2.564,2.564,0,0,1,.934,3.5L4.781,14.162a2.482,2.482,0,0,1-3.5.934,2.564,2.564,0,0,1-.934-3.5Z" transform="translate(115.194 22.954) rotate(180)" fill="#09cf65"/>
        <path id="Tracé_126" data-name="Tracé 126" d="M1.28,6.3,11.551.389A1.959,1.959,0,0,1,12.8,0a2.523,2.523,0,0,1,2.257,1.323,2.457,2.457,0,0,1-.934,3.424L3.847,10.738A2.615,2.615,0,0,1,.346,9.8,2.546,2.546,0,0,1,1.28,6.3" transform="translate(135.814 39.217) rotate(180)" fill="#09cf65"/>
        <path id="Tracé_127" data-name="Tracé 127" d="M1.28.389A2.037,2.037,0,0,1,2.6,0,2.586,2.586,0,0,1,4.781,1.323l5.914,10.271a2.457,2.457,0,0,1-.934,3.424,2.523,2.523,0,0,1-3.5-.856L.346,3.891A2.546,2.546,0,0,1,1.28.389" transform="translate(64.772 22.954) rotate(180)" fill="#09cf65"/>
        <path id="Tracé_128" data-name="Tracé 128" d="M168.927,15.951l-.156.856-.078.078v.233l-30.813,55.79a2.394,2.394,0,0,1-2.179,1.4H30.735A2.7,2.7,0,0,1,28.4,72.831L.311,16.963l-.078-.078-.078-.078-.078-.778L0,15.951V2.568A2.591,2.591,0,0,1,2.568,0,2.591,2.591,0,0,1,5.136,2.568V13.306H163.869V2.568a2.529,2.529,0,1,1,5.058,0V15.951ZM134.146,69.1l12.605-22.8H131.033l-8.481,22.8Zm-17.041,0,8.4-22.8H109.48L105.2,69.1Zm-30.035,0H99.987l4.28-22.8H87.07Zm-54.779,0H44.819l-7.7-22.8H20.775ZM27.623,18.441H6.692l11.594,22.8H35.326Zm26.533,0H32.992l7.781,22.8H58.125ZM42.485,46.3l7.7,22.8H62.949L58.981,46.3Zm39.45-27.856H59.37l3.968,22.8h18.6Zm0,27.856H64.194l3.968,22.8H81.935ZM87.07,18.441v22.8h18.208l4.28-22.8Zm27.7,0-4.28,22.8h16.963l8.4-22.8Zm26.533,0-8.4,22.8h16.652l12.528-22.8Z" transform="translate(168.927 152.042) rotate(180)" fill="#09cf65"/>
      </g>
      <circle id="Ellipse_18" data-name="Ellipse 18" cx="101" cy="101" r="101" transform="translate(326 0.082)" fill="#fff"/>
      <g id="Groupe_385" data-name="Groupe 385" transform="translate(364.19 21.233)">
        <g id="Groupe_371" data-name="Groupe 371" transform="translate(0 0)" clip-path="url(#clip-path)">
          <path id="Tracé_137" data-name="Tracé 137" d="M113.954,73.149l-1.082.655a61.613,61.613,0,0,1-3.541-7.079l0,0,.852-.366v.928a.943.943,0,0,1-.852-.561l.852-.366v0l.892.253a.941.941,0,0,1-.892.677v-.93l.892.253,0-.005c-1.1,3.9-1.408,8.469-4.557,13.833-2.836,4.848-4.671,7.132-8.469,10.011l-.01.008a1.621,1.621,0,0,1-.968.324,1.591,1.591,0,0,1-1.431-2.33v0A23.7,23.7,0,0,0,97.95,77.774a31.734,31.734,0,0,0-.844-7.175c-1.721-7.441-6.154-13.605-10.977-19.939-2.426-3.2-5.788-7.989-7.875-11.457a33.788,33.788,0,0,1-4.623-17.1,31.485,31.485,0,0,1,.268-4.13c.72-5.356,1.974-10.772,2.533-15.989v0l.917.1h-.923l.005-.1.917.1h.01v.948a.948.948,0,0,1-.933-.948h.933V2.075l.789.538a.977.977,0,0,1-.789.414V2.075l.789.538-.005.005a84.715,84.715,0,0,1-6.592,8.05C59.953,23.417,45.734,29.93,36.8,45.208a35.848,35.848,0,0,0-5.474,18.337l-.005.349c-.033,3.238,1.2,8.272,3.222,10.544l-.005-.005a1.6,1.6,0,0,1-1.2,2.654l-.475-.073,0,0c-4.092-1.385-8.244-7.067-9.8-13.605a37.725,37.725,0,0,1-.842-8.138,32.606,32.606,0,0,1,1.418-10.029h0l.892.3h-.94l.048-.3.892.3h0v.953a.933.933,0,0,1-.94-.953h.94v0l.69.662a.97.97,0,0,1-.69.291v-.953l.69.662-.005.005A77.946,77.946,0,0,0,3.027,100.271c0,.45.005.9.013,1.347v.023c.025,25.613,16.375,43.5,39.393,49.919l-.336,1.218-.735,1.029a20.1,20.1,0,0,1-6.741-8.181h0a23.775,23.775,0,0,1-2.022-9.832c.023-7.438,2.924-14.27,5.8-17.781a1.262,1.262,0,0,1,2.2.511c1.966,7.817,5.229,15.066,16.946,15.771l-.068,1.261-.715,1.041c-5.31-3.68-9.324-11.093-9.346-19.115l.008-.584h0c.19-8.123,2.388-20.225,13.757-31.77a1.264,1.264,0,0,1,2.166.892c-.008,1.663-.03,3.192-.03,4.61.018,6.132.389,9.976,3.95,14.49,6.579,8.424,16.519,10.959,21.369,21.375h0a24.858,24.858,0,0,1,.088,19.107h0a19.319,19.319,0,0,1-6.339,8l-.753-1.014-.351-1.213C103.943,144.8,119.974,127,120,101.641,120.007,94,118.266,82.7,112.872,73.8l1.082-.655,1.082-.652c5.732,9.508,7.484,21.139,7.491,29.144.025,26.513-17.007,45.41-40.543,52.164a1.263,1.263,0,0,1-1.1-2.227,16.8,16.8,0,0,0,5.522-6.971h0a22.361,22.361,0,0,0-.068-17.065v0c-4.1-9.225-13.684-11.74-21.046-20.851-4.051-5.055-4.522-9.905-4.5-16.062,0-1.446.023-2.975.03-4.623l1.264.005.9.887c-10.838,11.037-12.829,22.31-13.034,30.061h0l-.008.521c-.02,7.158,3.741,13.962,8.25,17.032a1.263,1.263,0,0,1-.784,2.3c-13.052-.629-17.452-9.64-19.267-17.707l1.228-.293.973.806c-2.426,2.9-5.239,9.432-5.219,16.171a21.247,21.247,0,0,0,1.8,8.79h0a17.5,17.5,0,0,0,5.907,7.165A1.264,1.264,0,0,1,41.76,154C17.863,147.418.487,128.416.513,101.641H1.776l-1.264.023C.505,101.2.5,100.736.5,100.271A80.466,80.466,0,0,1,23.4,44.45l-.005.005a1.58,1.58,0,0,1,2.722,1.087l-.083.505v0a30.122,30.122,0,0,0-1.286,9.223,35.092,35.092,0,0,0,.781,7.582c1.228,5.8,5.553,11.085,8.083,11.745l0,0-.278.89v-.933l.278.043-.278.89v-.015H32.4a.913.913,0,0,1,.933-.917v.917h0l-.705.614a.959.959,0,0,1-.23-.614h.935l-.705.614-.005,0c-2.666-3.164-3.8-8.411-3.834-12.195l.005-.415a38.425,38.425,0,0,1,5.823-19.55C44.076,27.9,58.6,21.273,69.676,8.972a82.881,82.881,0,0,0,6.389-7.79l-.005.005a1.587,1.587,0,0,1,2.894.892l-.01.172v0C78.36,7.673,77.1,13.11,76.406,18.3a28.5,28.5,0,0,0-.248,3.8,31.285,31.285,0,0,0,4.259,15.8c2.007,3.331,5.353,8.113,7.724,11.232,4.827,6.356,9.544,12.814,11.427,20.9a34.193,34.193,0,0,1,.91,7.747A26.211,26.211,0,0,1,97.89,89.61v0l-.821-.422h.923l-.1.422-.821-.422h.008v-.933a.91.91,0,0,1,.915.933h-.915V89.16l-.543-.728a.9.9,0,0,1,.543-.179v.907l-.543-.728-.01.008c3.6-2.765,4.987-4.494,7.822-9.283,2.861-4.86,3.124-8.947,4.3-13.229l0-.005a1.6,1.6,0,0,1,3.008-.195l0,0a59.413,59.413,0,0,0,3.379,6.766Z" transform="translate(0.764 0.764)" fill="#09cf65" stroke="#09cf65" stroke-width="2"/>
        </g>
      </g>
      <ellipse id="Ellipse_20" data-name="Ellipse 20" cx="106.5" cy="107" rx="106.5" ry="107" transform="translate(0 312.082)" fill="#fff"/>
      <g id="Groupe_590" data-name="Groupe 590" transform="translate(29.636 341.824)">
        <g id="Groupe_393" data-name="Groupe 393" transform="translate(0 0)" clip-path="url(#clip-path-2)">
          <path id="Tracé_138" data-name="Tracé 138" d="M13.738,85.472H3.377A2.882,2.882,0,0,1,.5,82.591v-42.9a2.881,2.881,0,0,1,5.762,0V79.709h4.6V50.534a2.881,2.881,0,1,1,5.762,0V82.591a2.882,2.882,0,0,1-2.881,2.881" transform="translate(0.933 69.238)" fill="#09cf65"/>
          <path id="Tracé_139" data-name="Tracé 139" d="M59.808,85.553H49.447a2.882,2.882,0,0,1-2.881-2.881V50.615a2.881,2.881,0,0,1,5.762,0V79.79h4.6V39.643a2.881,2.881,0,1,1,5.762,0V82.672a2.882,2.882,0,0,1-2.881,2.881" transform="translate(87.601 69.157)" fill="#09cf65"/>
          <path id="Tracé_140" data-name="Tracé 140" d="M75.86,71.932C33.321,71.932,0,56.8,0,37.478a2.881,2.881,0,0,1,5.762,0c0,15.553,32.1,28.691,70.1,28.691s70.1-13.138,70.1-28.691a2.881,2.881,0,0,1,5.762,0c0,19.322-33.321,34.454-75.86,34.454" transform="translate(0 65.084)" fill="#09cf65"/>
          <path id="Tracé_141" data-name="Tracé 141" d="M18.612,11.872a2.882,2.882,0,0,1-.619-5.7L35,2.418c1.544-.34,3.123-.617,4.7-.815a2.881,2.881,0,0,1,.726,5.716c-1.4.179-2.806.421-4.178.726l-17.008,3.76a2.921,2.921,0,0,1-.625.066" transform="translate(29.594 2.975)" fill="#09cf65"/>
          <path id="Tracé_142" data-name="Tracé 142" d="M51.812,11.871a2.921,2.921,0,0,1-.625-.066L34.179,8.045C32.807,7.74,31.4,7.5,30,7.319A2.881,2.881,0,0,1,30.727,1.6c1.573.2,3.152.475,4.7.815L52.432,6.175a2.882,2.882,0,0,1-.619,5.7" transform="translate(51.702 2.975)" fill="#09cf65"/>
          <path id="Tracé_143" data-name="Tracé 143" d="M75.86,103.178C29.426,103.178,3.294,97,2.2,96.736A2.883,2.883,0,0,1,.023,93.566L6.331,44.948A52.1,52.1,0,0,1,34.915,4.888a2.881,2.881,0,1,1,2.559,5.163,46.351,46.351,0,0,0-25.43,35.638L6.08,91.67c7.612,1.521,32.143,5.745,69.781,5.745s62.168-4.224,69.781-5.745l-5.964-45.982a46.351,46.351,0,0,0-25.43-35.638,2.881,2.881,0,0,1,2.559-5.163A52.1,52.1,0,0,1,145.39,44.948L151.7,93.566a2.883,2.883,0,0,1-2.181,3.169c-1.089.262-27.219,6.442-73.656,6.442" transform="translate(0 8.627)" fill="#09cf65"/>
          <path id="Tracé_144" data-name="Tracé 144" d="M34.959,91.839h-5.4a6.4,6.4,0,0,1-6.388-6.388V6.388A6.4,6.4,0,0,1,29.563,0h5.4A6.4,6.4,0,0,1,41.35,6.388V85.452a6.4,6.4,0,0,1-6.391,6.388m-5.4-86.077a.627.627,0,0,0-.625.625V85.452a.627.627,0,0,0,.625.625h5.4a.627.627,0,0,0,.625-.625V6.388a.627.627,0,0,0-.625-.625Z" transform="translate(43.598 -0.001)" fill="#09cf65"/>
          <path id="Tracé_145" data-name="Tracé 145" d="M23.5,87.082H17.8a6.244,6.244,0,0,1-6.238-6.235V8.767A6.244,6.244,0,0,1,17.8,2.529h5.7a6.244,6.244,0,0,1,6.235,6.238v72.08A6.243,6.243,0,0,1,23.5,87.082M17.8,8.291a.476.476,0,0,0-.475.475v72.08a.475.475,0,0,0,.475.473h5.7a.475.475,0,0,0,.473-.473V8.767a.475.475,0,0,0-.473-.475Z" transform="translate(21.751 4.757)" fill="#09cf65"/>
          <path id="Tracé_146" data-name="Tracé 146" d="M46.728,87.082h-5.7a6.245,6.245,0,0,1-6.238-6.235V8.767a6.246,6.246,0,0,1,6.238-6.238h5.7a6.246,6.246,0,0,1,6.238,6.238v72.08a6.245,6.245,0,0,1-6.238,6.235m-5.7-78.79a.476.476,0,0,0-.475.475v72.08a.475.475,0,0,0,.475.473h5.7a.477.477,0,0,0,.475-.473V8.767a.478.478,0,0,0-.475-.475Z" transform="translate(65.444 4.757)" fill="#09cf65"/>
        </g>
      </g>
      <g id="Groupe_627" data-name="Groupe 627" transform="translate(362.788 341.144)">
        <path id="Tracé_713" data-name="Tracé 713" d="M100.735,367.071H1.61l1.61,1.61V352.9l-1.61,1.61h99.125l-1.61-1.61v15.784a1.611,1.611,0,0,0,3.22,0V352.9a1.634,1.634,0,0,0-1.61-1.61H1.61A1.634,1.634,0,0,0,0,352.9v15.784a1.633,1.633,0,0,0,1.61,1.611h99.125a1.611,1.611,0,0,0,0-3.22" transform="translate(0 -214.241)" fill="#09cf65" stroke="#09cf65" stroke-width="1.3"/>
        <path id="Tracé_714" data-name="Tracé 714" d="M114.855,76.226H60.408l1.61,1.61V44.764q-.8.8-1.61,1.606h54.447l-1.61-1.606V77.836a1.611,1.611,0,0,0,3.22,0V44.764a1.634,1.634,0,0,0-1.61-1.614H60.408a1.634,1.634,0,0,0-1.61,1.614V77.836a1.634,1.634,0,0,0,1.61,1.61h54.447a1.611,1.611,0,0,0,0-3.22" transform="translate(-35.859 -26.316)" fill="#09cf65" stroke="#09cf65" stroke-width="1.3"/>
        <path id="Tracé_715" data-name="Tracé 715" d="M106.792,137.047H28.1l1.61,1.61V77.738c0-20.838-.783-41.841,0-62.668.316-8.356,6.974-11.7,14.314-11.7H83.641c3.81,0,8.049-.515,11.834.156,11.691,2.08,9.708,15.066,9.708,23.749V66.2c0,23.678-.376,47.393,0,71.071.007.462,0,.927,0,1.388a1.611,1.611,0,0,0,3.22,0V30.81c0-6.747,1.563-16.559-1.764-22.781C103.5,2.173,97.7.149,91.462.149H50.9c-3.989,0-8.374-.476-12.331.273C31.3,1.8,26.7,8.184,26.5,15.342c-.075,2.676,0,5.366,0,8.046V61.826c0,25.1-.361,50.237,0,75.334.007.5,0,1,0,1.5a1.634,1.634,0,0,0,1.61,1.61h78.689a1.611,1.611,0,0,0,0-3.22" transform="translate(-16.061 0)" fill="#09cf65" stroke="#09cf65" stroke-width="1.3"/>
        <path id="Tracé_716" data-name="Tracé 716" d="M81.222,191.268q15.873-11.011,31.746-22.026,2.3-1.588,4.586-3.18l-2.2-2.2q-6.31,11.938-12.625,23.876a1.622,1.622,0,0,0,1.388,2.419h12.628c-.273-1-.544-2-.812-3L84.983,209.423l-4.451,3.205,2.2,2.2q6.52-12.331,13.042-24.673a1.627,1.627,0,0,0-1.392-2.422l-13.971.537c-2.068.078-2.075,3.295,0,3.22l13.97-.536-1.392-2.422Q86.473,200.867,79.953,213.2c-.691,1.309.808,3.209,2.2,2.2L113.1,193.139q2.227-1.6,4.454-3.205a1.623,1.623,0,0,0-.812-3H104.114q.7,1.213,1.392,2.422,6.31-11.938,12.625-23.876c.7-1.32-.8-3.175-2.2-2.2Q100.058,174.293,84.181,185.3,81.89,186.9,79.6,188.488c-1.693,1.173-.086,3.967,1.623,2.78" transform="translate(-48.093 -99.415)" fill="#09cf65" stroke="#09cf65" stroke-width="1.3"/>
        <path id="Tracé_717" data-name="Tracé 717" d="M272.186,64.026a9.826,9.826,0,0,1-8.117-4.312,10.748,10.748,0,0,1-1.678-6.182V36.561q-.8.8-1.61,1.61H283.59q-.811-.8-1.61-1.61V46.97c0,3.5.633,7.952-.837,11.24a9.932,9.932,0,0,1-8.958,5.815c-2.068.036-2.075,3.255,0,3.22A13.193,13.193,0,0,0,285.2,54.134c.05-4.213,0-8.432,0-12.646V36.561a1.633,1.633,0,0,0-1.606-1.61H260.781a1.63,1.63,0,0,0-1.606,1.61V48.369c0,4.726-.465,9.558,2.554,13.591a13.124,13.124,0,0,0,10.455,5.284,1.611,1.611,0,0,0,0-3.22" transform="translate(-158.048 -21.316)" fill="#09cf65" stroke="#09cf65" stroke-width="1.3"/>
        <path id="Tracé_718" data-name="Tracé 718" d="M272.613,3.22V15.09c0,2.071,7.155,2.075,7.155,0V3.22c0-2.071-7.155-2.075-7.155,0" transform="translate(-166.259 -1.016)" fill="#09cf65"/>
        <path id="Tracé_719" data-name="Tracé 719" d="M297.91,3.22V15.09c0,2.071,7.155,2.075,7.155,0V3.22c0-2.071-7.155-2.075-7.155,0" transform="translate(-181.687 -1.016)" fill="#09cf65"/>
        <path id="Tracé_720" data-name="Tracé 720" d="M230.143,122.507c2.341-.086,5.269.243,7.176,1.7,2.1,1.6,1.749,4.189,1.749,6.525v19.482c0,11.34-.823,23.013,0,34.328.444,6.074,5.9,11.423,12.066,7.856,3.212-1.857,3.921-5.37,3.921-8.754q.005-18.309,0-36.618v-35a1.611,1.611,0,0,0-3.22,0V179.34c0,2.224.325,4.729-.136,6.929-1.113,5.291-7.624,4.883-9.061,0a10.131,10.131,0,0,1-.354-2.987c-.179-13,0-26.015,0-39.018,0-5.427.243-10.918,0-16.341-.286-6.425-6.414-8.847-12.145-8.636-2.064.075-2.075,3.295,0,3.22" transform="translate(-139.411 -67.375)" fill="#09cf65" stroke="#09cf65" stroke-width="1.3"/>
      </g>
      <text id="_" data-name="?" transform="translate(242 177.083)" fill="#09cf65" font-size="100" font-family="Poppins-Bold, Poppins" font-weight="700"><tspan x="0" y="105">?</tspan></text>
    </g>
  </g>
</svg>
