<svg xmlns="http://www.w3.org/2000/svg" width="101" height="100" viewBox="0 0 101 100">
  <g id="Groupe_2288" data-name="Groupe 2288" transform="translate(-1514 -5970)">
    <g id="Groupe_2170" data-name="Groupe 2170" transform="translate(-3 2880)">
      <g id="Groupe_2287" data-name="Groupe 2287">
        <ellipse id="Ellipse_22" data-name="Ellipse 22" cx="50.5" cy="50" rx="50.5" ry="50" transform="translate(1517 3090)" fill="#fff"/>
      </g>
    </g>
    <path id="Icon_metro-tools" data-name="Icon metro-tools" d="M61.116,14.568A14.191,14.191,0,0,1,41,32.371l-3.926,4.287,2.8,2.812L41.549,37.8a2.188,2.188,0,0,1,3.1,0L58.221,51.508a2.188,2.188,0,0,1,0,3.1l-6.2,6.2a2.188,2.188,0,0,1-3.1,0L35.354,47.089a2.188,2.188,0,0,1,0-3.1l1.529-1.529-2.669-2.676L15.442,60.295a4.379,4.379,0,0,1-6.2,0L7.7,58.746a4.379,4.379,0,0,1,0-6.2L29.083,34.64,14.88,20.4l-4.486,0L5.2,12.05,9.38,7.865l8.537,5.225.056,4.392L32.341,31.906l4.18-3.5A14.206,14.206,0,0,1,53.351,6.839l-9.2,9.077,7.747,7.747,9.222-9.095ZM12.835,54.735a2.191,2.191,0,1,0,0,3.1A2.192,2.192,0,0,0,12.835,54.735Z" transform="translate(1530.798 5986.215)" fill="#09cf65"/>
  </g>
</svg>
