<svg xmlns="http://www.w3.org/2000/svg" width="101" height="100" viewBox="0 0 101 100">
  <g id="Groupe_2292" data-name="Groupe 2292" transform="translate(-630 -6555)">
    <g id="Groupe_2176" data-name="Groupe 2176" transform="translate(-3 3075)">
      <ellipse id="Ellipse_24" data-name="Ellipse 24" cx="50.5" cy="50" rx="50.5" ry="50" transform="translate(633 3480)" fill="#fff"/>
    </g>
    <path id="Icon_ionic-ios-git-network" data-name="Icon ionic-ios-git-network" d="M46.823,2.25a9.551,9.551,0,0,0-7.171,15.841,9.438,9.438,0,0,0,5.159,3.039v5.82L30.429,34.431,16.06,26.95v-5.82a9.54,9.54,0,1,0-9.2-3.039,9.438,9.438,0,0,0,5.159,3.039v7.752a.945.945,0,0,0,.527.851l15.868,8.211v5.928A9.537,9.537,0,1,0,37.6,46.909a9.438,9.438,0,0,0-5.159-3.039V37.942l15.868-8.211a.945.945,0,0,0,.527-.851V21.129A9.548,9.548,0,0,0,46.823,2.25ZM8.524,11.8a5.51,5.51,0,1,1,5.51,5.51A5.516,5.516,0,0,1,8.524,11.8ZM35.938,53.2a5.51,5.51,0,1,1-5.51-5.51A5.516,5.516,0,0,1,35.938,53.2ZM46.823,17.321a5.51,5.51,0,1,1,5.51-5.51A5.516,5.516,0,0,1,46.823,17.321Z" transform="translate(650.5 6572.75)" fill="#09cf65"/>
  </g>
</svg>
