<svg xmlns="http://www.w3.org/2000/svg" width="42.105" height="42.73" viewBox="0 0 42.105 42.73">
  <g id="Groupe_60070" data-name="Groupe 60070" transform="translate(0 0)">
    <g id="Groupe_60071" data-name="Groupe 60071">
      <path id="Tracé_96436" data-name="Tracé 96436" d="M18.754,225.317a12.9,12.9,0,0,0,.375,14.021L2.707,239.3A2.863,2.863,0,0,1,0,236.542l0-8.771a8.007,8.007,0,0,1,2.927-5.731,9.444,9.444,0,0,1,4.664-2.254,5.615,5.615,0,0,1,2.9.261,15.143,15.143,0,0,0,5.251.73A15.556,15.556,0,0,0,20,219.912a5.847,5.847,0,0,1,4.085.388,13.244,13.244,0,0,0-5.334,5.016" transform="translate(0 -200.691)" fill="#09cf65"/>
      <path id="Tracé_96437" data-name="Tracé 96437" d="M87.937,8.98A8.984,8.984,0,1,1,78.952,0,8.983,8.983,0,0,1,87.937,8.98" transform="translate(-63.915 0.001)" fill="#09cf65"/>
      <path id="Tracé_96438" data-name="Tracé 96438" d="M242.367,238.1A11.569,11.569,0,1,1,230.8,226.537,11.567,11.567,0,0,1,242.367,238.1" transform="translate(-200.262 -206.938)" fill="#09cf65"/>
      <path id="Tracé_96439" data-name="Tracé 96439" d="M281.7,288.356a1.173,1.173,0,0,1,1.727.16,1.015,1.015,0,0,1-.065,1.543,5.733,5.733,0,0,1-7.222.275,6.154,6.154,0,0,1-2.238-3.469l-1.175-.012a.886.886,0,0,1-.884-.949.988.988,0,0,1,.971-1.118l.77-.01.013-1.16-.872-.017a.916.916,0,0,1-.85-1.057c.037-.508.328-1.017.865-1.016h1.22a6.869,6.869,0,0,1,2.277-3.342,5.931,5.931,0,0,1,7.429-.12,1.229,1.229,0,0,1,.5.715,1.168,1.168,0,0,1-.286.9,1.257,1.257,0,0,1-1.805.326,3.233,3.233,0,0,0-3.34-.451,3.917,3.917,0,0,0-1.993,1.953l3.668.006a1.031,1.031,0,0,1,1.055.9.972.972,0,0,1-.875,1.163l-4.331.031-.013,1.166,3.719.033a.922.922,0,0,1,.828.964.94.94,0,0,1-.831,1.045l-3.3.044a3.359,3.359,0,0,0,1.5,1.729,3.143,3.143,0,0,0,3.531-.236" transform="translate(-248.321 -252.868)" fill="#fdfdfd"/>
    </g>
  </g>
</svg>
