<svg id="Groupe_59980" data-name="Groupe 59980" xmlns="http://www.w3.org/2000/svg" xmlns:xlink="http://www.w3.org/1999/xlink" width="113.733" height="77.096" viewBox="0 0 113.733 77.096">
  <defs>
    <clipPath id="clip-path">
      <rect id="Rectangle_27151" data-name="Rectangle 27151" width="113.733" height="77.096" fill="#fff"/>
    </clipPath>
  </defs>
  <g id="Groupe_59979" data-name="Groupe 59979" clip-path="url(#clip-path)">
    <path id="Tracé_96373" data-name="Tracé 96373" d="M74.555,112.575l-69.021-.18c-4.788-.012-5.925-5.389-5.426-9,1.61-11.651,10.1-20.955,22.34-21.629L56.2,81.528A24.326,24.326,0,0,1,80.819,106.8a6.059,6.059,0,0,1-6.264,5.775" transform="translate(0 -35.479)" fill="#fff"/>
    <path id="Tracé_96374" data-name="Tracé 96374" d="M68.5,19.083A19.123,19.123,0,1,1,49.372,0,19.1,19.1,0,0,1,68.5,19.083" transform="translate(-13.164)" fill="#fff"/>
    <path id="Tracé_96375" data-name="Tracé 96375" d="M149.4,24.475A17.182,17.182,0,1,1,132.221,7.33,17.163,17.163,0,0,1,149.4,24.475" transform="translate(-50.063 -3.19)" fill="#fff"/>
    <path id="Tracé_96376" data-name="Tracé 96376" d="M173.684,103.532c.067,3.649-2.105,6.981-5.537,6.989l-19.751.042A33.881,33.881,0,0,0,137.766,82.3l15.085-.079c9.91-.051,20.517,9.5,20.833,21.31" transform="translate(-59.953 -35.781)" fill="#fff"/>
  </g>
</svg>
