<svg xmlns="http://www.w3.org/2000/svg" width="58.875" height="58.875" viewBox="0 0 58.875 58.875">
  <path id="Icon_awesome-info-circle" data-name="Icon awesome-info-circle" d="M30,.563A29.438,29.438,0,1,0,59.438,30,29.442,29.442,0,0,0,30,.563Zm0,13.057A4.985,4.985,0,1,1,25.015,18.6,4.985,4.985,0,0,1,30,13.619Zm6.647,30.15a1.424,1.424,0,0,1-1.424,1.424H24.777a1.424,1.424,0,0,1-1.424-1.424V40.92A1.424,1.424,0,0,1,24.777,39.5H26.2V31.9H24.777a1.424,1.424,0,0,1-1.424-1.424V27.626A1.424,1.424,0,0,1,24.777,26.2h7.6A1.424,1.424,0,0,1,33.8,27.626V39.5h1.424a1.424,1.424,0,0,1,1.424,1.424Z" transform="translate(-0.563 -0.563)" fill="#004d6d"/>
</svg>
